<svg xmlns="http://www.w3.org/2000/svg" width="44" height="44" viewBox="0 0 48 48"><ellipse cx="24" cy="45.5" fill="#45413c" opacity=".15" rx="19.5" ry="1.5"/><path fill="#daedf7" d="M42 40.5c0 2.2-1.8 4-4 4H10c-2.2 0-4-1.8-4-4V27c0-9.9 8.1-18 18-18s18 8.1 18 18v13.5z"/><path fill="#fff" d="M24 9C14.1 9 6 17.1 6 27v5c0-9.9 8.1-18 18-18s18 8.1 18 18v-5c0-9.9-8.1-18-18-18z"/><path fill="none" stroke="#45413c" stroke-linecap="round" stroke-linejoin="round" stroke-miterlimit="10" d="M42 40.5c0 2.2-1.8 4-4 4H10c-2.2 0-4-1.8-4-4V27c0-9.9 8.1-18 18-18s18 8.1 18 18v13.5z"/><path fill="#c0dceb" d="M30.5 44c0 1.1-.9 2-2 2h-9c-1.1 0-2-.9-2-2v-8c0-1.1.9-2 2-2h9c1.1 0 2 .9 2 2v8z"/><path fill="#adc4d9" d="M17.5 38.5h13v2h-13z"/><path fill="#adc4d9" stroke="#45413c" stroke-linecap="round" stroke-linejoin="round" stroke-miterlimit="10" d="M45.5 36.5l-3.5 2V26l3.5 2zM2.5 36.5l3.5 2V26l-3.5 2z"/><path fill="none" stroke="#45413c" stroke-linecap="round" stroke-linejoin="round" stroke-miterlimit="10" d="M24 9c.2-1 2.5-8 10.5-6.7"/><circle cx="36" cy="3.5" r="2.5" fill="#ff6242" stroke="#45413c" stroke-linecap="round" stroke-linejoin="round" stroke-miterlimit="10"/><path fill="none" stroke="#45413c" stroke-linecap="round" stroke-linejoin="round" stroke-miterlimit="10" d="M30.5 44c0 1.1-.9 2-2 2h-9c-1.1 0-2-.9-2-2v-8c0-1.1.9-2 2-2h9c1.1 0 2 .9 2 2v8z"/><path fill="#ff6242" stroke="#45413c" stroke-linecap="round" stroke-linejoin="round" stroke-miterlimit="10" d="M30.5 38.5h-13V36c0-1.1.9-2 2-2h9c1.1 0 2 .9 2 2v2.5z"/><path fill="none" stroke="#45413c" stroke-linecap="round" stroke-linejoin="round" stroke-miterlimit="10" d="M33.5 11.8C30.7 10.1 27.5 9 24 9s-6.7 1-9.5 2.7V24h19V11.8z"/><circle cx="32.5" cy="25" r="5" fill="#00dfeb" stroke="#45413c" stroke-linecap="round" stroke-linejoin="round" stroke-miterlimit="10"/><circle cx="32.5" cy="25" r="2" fill="#627b8c" stroke="#45413c" stroke-linecap="round" stroke-linejoin="round" stroke-miterlimit="10"/><circle cx="15.5" cy="25" r="5" fill="#00dfeb" stroke="#45413c" stroke-linecap="round" stroke-linejoin="round" stroke-miterlimit="10"/><circle cx="15.5" cy="25" r="2" fill="#627b8c" stroke="#45413c" stroke-linecap="round" stroke-linejoin="round" stroke-miterlimit="10"/></svg>